<?xml version="1.0" standalone="no"?>
<!DOCTYPE svg PUBLIC "-//W3C//DTD SVG 1.1//EN" "http://www.w3.org/Graphics/SVG/1.1/DTD/svg11.dtd">
<svg xmlns="http://www.w3.org/2000/svg" viewBox="0 0 1586.000 849.000">
	<g id="Text">
		<path style="fill:none;stroke:black;" d="M1153.224,367.871L1152.454,367.848L1151.683,367.871L1150.932,367.939L1150.201,368.053L1149.489,368.212L1148.797,368.417L1148.124,368.667L1147.471,368.963L1146.837,369.305L1146.222,369.691L1145.627,370.124L1145.052,370.601L1144.496,371.125L1143.823,371.837L1143.209,372.568L1142.653,373.319L1142.156,374.089L1141.717,374.879L1141.337,375.689L1141.015,376.517L1140.752,377.366L1140.547,378.234L1140.401,379.121L1140.313,380.028L1140.284,380.954L1140.329,381.965L1140.466,382.970L1140.693,383.968L1141.012,384.959L1141.421,385.944L1141.922,386.922L1142.514,387.894L1143.196,388.860L1143.970,389.819L1144.834,390.771L1145.790,391.717L1146.837,392.656L1148.475,394.041L1150.113,395.387L1151.751,396.693L1153.390,397.961L1155.028,399.190L1156.666,400.379L1158.304,401.530L1159.943,402.642L1161.581,403.714L1163.219,404.748L1164.857,405.743L1166.496,406.698L1168.215,407.752L1169.785,408.883L1171.206,410.092L1172.477,411.379L1173.598,412.744L1174.570,414.188L1175.392,415.709L1176.065,417.308L1176.589,418.985L1176.962,420.741L1177.187,422.574L1177.261,424.485L1177.213,426.403L1177.066,428.256L1176.823,430.044L1176.481,431.766L1176.043,433.424L1175.506,435.017L1174.872,436.545L1174.141,438.007L1173.312,439.405L1172.386,440.738L1171.362,442.006L1170.240,443.208L1169.112,444.255L1167.913,445.211L1166.642,446.075L1165.300,446.849L1163.886,447.531L1162.400,448.123L1160.843,448.624L1159.215,449.033L1157.515,449.352L1155.743,449.579L1148.384,449.592L1146.690,449.381L1145.068,449.085L1143.518,448.705L1142.039,448.240L1140.631,447.691L1139.296,447.057L1138.031,446.338L1136.838,445.536L1135.717,444.648L1134.667,443.676L1133.471,442.409L1132.378,441.102L1131.390,439.756L1130.506,438.371L1129.726,436.948L1129.050,435.485L1128.478,433.983L1128.010,432.442L1127.646,430.863L1127.386,429.244L1127.230,427.586L1127.178,425.889L1127.178,421.209L1137.943,421.209L1137.943,425.421L1137.969,426.644L1138.047,427.814L1138.177,428.932L1138.359,429.998L1138.593,431.012L1138.879,431.974L1139.217,432.885L1139.607,433.743L1140.050,434.549L1140.544,435.303L1141.090,436.005L1141.688,436.655L1142.325,437.253L1142.988,437.799L1143.677,438.293L1144.392,438.735L1145.133,439.126L1146.694,439.750L1147.513,439.984L1148.358,440.166L1149.229,440.296L1150.126,440.374L1151.049,440.400L1152.272,440.374L1153.442,440.296L1154.560,440.166L1155.626,439.984L1156.640,439.750L1157.602,439.464L1158.513,439.126L1159.371,438.735L1160.177,438.293L1160.931,437.799L1161.633,437.253L1162.283,436.655L1162.956,435.937L1163.570,435.186L1164.126,434.403L1164.623,433.587L1165.062,432.738L1165.443,431.857L1165.764,430.944L1166.028,429.998L1166.232,429.020L1166.379,428.009L1166.466,426.965L1166.496,425.889L1166.450,424.739L1166.314,423.627L1166.086,422.554L1165.768,421.521L1165.358,420.526L1164.857,419.570L1164.266,418.654L1163.583,417.776L1162.810,416.938L1161.945,416.138L1160.989,415.377L1159.943,414.656L1158.002,413.401L1156.081,412.133L1154.180,410.853L1152.298,409.559L1150.435,408.252L1148.592,406.932L1146.768,405.600L1144.964,404.254L1143.180,402.895L1141.415,401.524L1139.669,400.139L1137.943,398.741L1136.744,397.698L1135.642,396.596L1134.637,395.435L1133.731,394.216L1132.921,392.939L1132.209,391.603L1131.595,390.209L1131.078,388.756L1130.659,387.244L1130.337,385.674L1130.113,384.046L1129.986,382.359L1129.963,380.665L1130.051,379.017L1130.249,377.415L1130.558,375.858L1130.977,374.346L1131.507,372.880L1132.148,371.460L1132.898,370.085L1133.760,368.755L1134.732,367.471L1135.814,366.233L1137.007,365.040L1138.187,363.993L1139.386,363.038L1140.605,362.173L1141.844,361.399L1143.102,360.717L1144.379,360.125L1145.676,359.624L1146.993,359.215L1160.222,359.462L1161.581,359.891L1162.875,360.398L1164.103,360.983L1165.267,361.646L1166.366,362.387L1167.399,363.207L1168.368,364.104L1169.486,365.313L1170.500,366.600L1171.411,367.965L1172.217,369.409L1172.919,370.930L1173.517,372.529L1174.011,374.206L1174.401,375.962L1174.687,377.795L1174.869,379.706L1174.947,381.695L1174.921,383.763L1164.155,383.763L1164.272,382.459L1164.311,381.201L1164.272,379.989L1164.155,378.822L1163.960,377.701L1163.687,376.625L1163.336,375.594L1162.907,374.609L1162.400,373.670L1161.815,372.776L1161.152,371.928L1160.411,371.125L1159.855,370.601L1159.280,370.124L1158.685,369.691L1158.070,369.305L1157.437,368.963L1156.783,368.667L1156.110,368.417L1155.418,368.212L1154.706,368.053L1153.975,367.939ZM1061.821,403.890L1062.757,403.929L1063.694,404.046L1064.630,404.241L1065.566,404.514L1066.502,404.865L1067.438,405.294L1068.374,405.801L1069.310,406.386L1070.247,407.049L1071.183,407.791L1072.119,408.610L1073.055,409.507L1073.877,410.388L1074.628,411.314L1075.307,412.286L1075.915,413.303L1076.452,414.366L1076.917,415.475L1077.310,416.629L1077.632,417.828L1077.882,419.073L1078.061,420.364L1078.168,421.700L1078.204,423.081L1078.171,424.310L1078.074,425.499L1077.911,426.650L1077.684,427.762L1077.391,428.834L1077.034,429.868L1076.611,430.863L1076.123,431.818L1075.571,432.735L1074.953,433.613L1074.271,434.451L1073.523,435.251L1072.571,436.148L1071.586,436.967L1070.568,437.708L1069.518,438.371L1068.436,438.957L1067.321,439.464L1066.174,439.893L1064.994,440.244L1063.781,440.517L1062.536,440.712L1059.949,440.868L1049.183,440.868L1049.183,403.890ZM622.980,448.705L621.501,448.240L620.094,447.691L618.758,447.057L617.493,446.338L616.300,445.536L615.179,444.648L614.129,443.676L612.933,442.409L611.841,441.102L610.853,439.756L609.968,438.371L609.188,436.948L608.512,435.485L607.940,433.983L607.472,432.442L607.108,430.863L606.848,429.244L606.692,427.586L606.640,425.889L606.640,421.209L617.406,421.209L617.406,425.421L617.432,426.644L617.510,427.814L617.640,428.932L617.822,429.998L618.056,431.012L618.342,431.974L618.680,432.885L619.070,433.743L619.512,434.549L620.006,435.303L620.552,436.005L621.150,436.655L621.787,437.253L622.450,437.799L623.139,438.293L623.855,438.735L624.596,439.126L625.363,439.464L626.156,439.750L626.975,439.984L627.820,440.166L628.691,440.296L629.589,440.374L630.512,440.400L631.734,440.374L632.904,440.296L634.022,440.166L635.088,439.984L636.103,439.750L637.065,439.464L637.975,439.126L638.833,438.735L639.639,438.293L640.393,437.799L641.095,437.253L641.745,436.655L642.418,435.937L643.033,435.186L643.588,434.403L644.086,433.587L644.525,432.738L644.905,431.857L645.227,430.944L645.490,429.998L645.695,429.020L645.841,428.009L645.929,426.965L645.958,425.889L645.913,424.739L645.776,423.627L645.549,422.554L645.230,421.521L644.820,420.526L644.320,419.570L643.728,418.654L643.046,417.776L642.272,416.938L641.407,416.138L640.452,415.377L639.405,414.656L637.464,413.401L635.543,412.133L633.642,410.853L631.760,409.559L629.897,408.252L628.054,406.932L626.231,405.600L624.427,404.254L622.642,402.895L620.877,401.524L619.132,400.139L617.406,398.741L616.206,397.698L615.104,396.596L614.100,395.435L613.193,394.216L612.384,392.939L611.672,391.603L611.057,390.209L610.540,388.756L610.121,387.244L609.799,385.674L609.575,384.046L609.448,382.359L609.426,380.665L609.513,379.017L609.712,377.415L610.020,375.858L610.440,374.346L610.970,372.880L611.610,371.460L612.361,370.085L613.222,368.755L614.194,367.471L615.276,366.233L616.469,365.040L617.649,363.993L618.849,363.038L620.068,362.173L621.306,361.399L622.564,360.717L623.842,360.125L625.139,359.624L626.455,359.215L627.791,358.896L629.146,358.669L635.218,358.643L636.772,358.838L639.685,359.462L641.043,359.891L642.337,360.398L643.566,360.983L644.729,361.646L645.828,362.387L646.862,363.207L647.830,364.104L648.949,365.313L649.963,366.600L650.873,367.965L651.679,369.409L652.381,370.930L652.979,372.529L653.473,374.206L653.863,375.962L654.149,377.795L654.331,379.706L654.409,381.695L654.383,383.763L643.618,383.763L643.735,382.459L643.774,381.201L643.735,379.989L643.618,378.822L643.423,377.701L643.150,376.625L642.799,375.594L642.370,374.609L641.862,373.670L641.277,372.776L640.614,371.928L639.873,371.125L639.317,370.601L638.742,370.124L638.147,369.691L637.533,369.305L636.899,368.963L636.246,368.667L635.573,368.417L634.880,368.212L634.168,368.053L633.437,367.939L632.686,367.871L631.916,367.848L631.145,367.871L630.395,367.939L629.663,368.053L628.951,368.212L628.259,368.417L627.586,368.667L626.933,368.963L626.299,369.305L625.685,369.691L625.090,370.124L624.514,370.601L623.959,371.125L623.286,371.837L622.671,372.568L622.116,373.319L621.618,374.089L621.179,374.879L620.799,375.689L620.477,376.517L620.214,377.366L620.009,378.234L619.863,379.121L619.775,380.028L619.746,380.954L619.791,381.965L619.928,382.970L620.156,383.968L620.474,384.959L620.884,385.944L621.384,386.922L621.976,387.894L622.658,388.860L623.432,389.819L624.297,390.771L625.252,391.717L626.299,392.656L627.937,394.041L629.576,395.387L631.214,396.693L632.852,397.961L634.490,399.190L636.129,400.379L637.767,401.530L639.405,402.642L641.043,403.714L642.682,404.748L644.320,405.743L645.958,406.698L647.678,407.752L649.248,408.883L650.668,410.092L651.939,411.379L653.060,412.744L654.032,414.188L654.855,415.709L655.528,417.308L656.051,418.985L656.425,420.741L656.649,422.574L656.724,424.485L656.675,426.403L656.529,428.256L656.285,430.044L655.944,431.766L655.505,433.424L654.969,435.017L654.335,436.545L653.603,438.007L652.774,439.405L651.848,440.738L650.824,442.006L649.703,443.208L648.575,444.255L647.375,445.211L646.104,446.075L644.762,446.849L643.348,447.531L641.862,448.123L640.305,448.624L638.677,449.033L636.977,449.352L635.205,449.579L633.362,449.716L631.448,449.761L629.611,449.719L627.846,449.592L626.153,449.381L624.531,449.085ZM433.907,367.380L452.162,367.380L452.162,408.571L452.162,449.761L462.927,449.761L462.927,367.380L482.119,367.380L482.119,358.487L433.907,358.487ZM513.200,367.380L531.455,367.380L531.455,408.571L531.455,449.761L542.220,449.761L542.220,367.380L561.411,367.380L561.411,358.487L513.200,358.487ZM839.786,358.487L850.552,358.487L850.552,440.868L888.466,440.868L888.466,449.761L839.786,449.761ZM932.264,449.761L955.668,358.487L965.029,358.487L988.433,449.761L977.199,449.761L970.646,423.081L950.051,423.081L943.498,449.761ZM959.880,383.295L952.391,414.188L968.306,414.188L960.817,383.295ZM1038.417,358.487L1062.757,358.487L1064.516,358.526L1066.203,358.643L1067.818,358.838L1069.362,359.111L1070.835,359.462L1072.236,359.891L1073.565,360.398L1074.823,360.983L1076.010,361.646L1077.125,362.387L1078.168,363.207L1079.140,364.104L1080.261,365.293L1081.285,366.522L1082.212,367.790L1083.040,369.096L1083.772,370.442L1084.406,371.827L1084.942,373.251L1085.381,374.713L1085.722,376.215L1085.966,377.756L1086.112,379.336L1086.161,380.954L1086.125,382.411L1086.018,383.815L1085.839,385.167L1085.589,386.467L1085.267,387.715L1084.874,388.912L1084.409,390.056L1083.873,391.148L1083.265,392.188L1082.585,393.176L1081.835,394.112L1081.012,394.997L1080.320,395.676L1079.647,396.310L1078.994,396.898L1078.360,397.441L1077.745,397.938L1077.151,398.390L1076.575,398.796L1076.019,399.157L1075.483,399.473L1074.966,399.742L1074.469,399.967L1073.991,400.145L1074.836,400.617L1075.655,401.095L1076.448,401.579L1077.215,402.070L1077.957,402.567L1078.672,403.071L1079.361,403.581L1080.024,404.098L1080.661,404.621L1081.272,405.151L1081.857,405.688L1082.416,406.230L1083.388,407.277L1084.276,408.389L1085.079,409.565L1085.797,410.807L1086.431,412.114L1086.980,413.486L1087.445,414.922L1087.825,416.424L1088.121,417.991L1088.332,419.622L1088.459,421.319L1088.501,423.081L1088.459,424.992L1088.332,426.826L1088.121,428.581L1087.825,430.258L1087.445,431.857L1086.980,433.379L1086.431,434.822L1085.797,436.187L1085.079,437.474L1084.276,438.683L1083.388,439.815L1082.416,440.868L1080.915,442.288L1079.374,443.585L1077.794,444.759L1076.175,445.809L1074.518,446.735L1072.821,447.538L1071.085,448.217L1069.310,448.773L1067.497,449.205L1065.644,449.514L1063.752,449.699L1061.821,449.761L1038.417,449.761ZM1049.183,367.380L1049.183,394.997L1063.225,394.997L1050.662,394.971L1051.491,394.893L1065.712,394.763L1066.502,394.581L1067.272,394.346L1068.023,394.060L1068.755,393.722L1069.466,393.332L1070.159,392.890L1070.832,392.396L1071.485,391.850L1072.119,391.252L1072.792,390.537L1073.406,389.796L1073.962,389.029L1074.459,388.236L1074.898,387.416L1075.278,386.571L1075.600,385.700L1075.863,384.803L1076.068,383.880L1076.214,382.931L1076.302,381.956L1076.331,380.954L1076.309,379.960L1076.240,379.004L1076.127,378.087L1075.967,377.210L1075.763,376.371L1075.512,375.572L1075.217,374.811L1074.875,374.089L1074.488,373.407L1074.056,372.763L1073.578,372.158L1073.055,371.593L1072.353,370.920L1071.651,370.306L1070.949,369.750L1070.247,369.253L1069.544,368.814L1068.842,368.433L1068.140,368.112L1067.438,367.848L1066.736,367.643L1066.034,367.497L1065.332,367.409L1064.630,367.380ZM1132.489,439.464L1146.694,439.750"/>
	</g>
	<g id="BezierCurve.004">
		<path style="fill:none;stroke:black;" d="M795.902,371.862C816.108,382.912 807.921,395.788 808.178,396.121C819.469,410.734 806.793,420.766 806.779,421.186C806.724,422.838 800.281,427.736 799.930,427.967C795.379,430.955 790.615,431.022 790.481,431.420C787.026,441.718 779.416,442.009 779.054,442.223C778.832,442.355 776.449,442.986 776.309,443.046C771.264,445.219 764.541,444.395 763.137,443.915C758.066,442.180 747.554,444.476 747.247,444.945C740.098,455.859 721.933,455.116 719.825,454.997C703.120,454.049 699.257,440.936 699.123,440.928C694.182,440.602 690.432,433.674 689.426,431.818C678.903,412.408 690.082,401.235 690.066,400.897C689.873,396.844 691.744,391.811 691.976,390.953C694.851,380.333 695.384,382.718 697.958,378.631C702.001,372.209 706.992,371.873 707.107,371.400C709.011,363.534 719.413,362.998 723.839,361.062C741.382,353.386 751.181,359.890 751.540,359.827C769.604,356.631 777.440,358.607 790.642,368.579C790.726,368.642 795.883,371.851 795.902,371.862ZM700.672,409.126C711.550,409.670 709.551,408.732 716.209,408.732C722.868,408.732 719.140,385.112 725.799,385.112C732.457,385.112 726.927,428.565 733.585,428.565C740.244,428.565 740.239,372.528 746.897,372.528C753.556,372.528 745.765,429.570 752.423,429.570C759.082,429.570 761.087,379.335 767.745,379.335C774.403,379.335 766.725,409.115 773.384,409.115C780.042,409.115 789.680,409.706 794.726,409.706"/>
	</g>
</svg>